<svg id="Layer_1" data-name="Layer 1" xmlns="http://www.w3.org/2000/svg" viewBox="0 0 784.7 819.79"><defs><style>.cls-1{fill:#231f20;}</style></defs><path class="cls-1" d="M358.07,84.44c104.74,0,197.54,45.07,221.08,165.39L449.74,272.26,433.14,262c7.23-23.31,10-43.58,9.8-61.56-.66-59.33-36.16-83.77-81.93-83.77h-1.44c-83.93.93-120.41,90.52-118.74,240.4,1.64,146.92,40.55,242.2,122.92,242.2h1.19c47.21-.52,85.11-30.17,84.38-95.37,0-3.73-.23-7.53-.5-11.39-26.83,4-52.73,9.65-76.37,18.23-5.56-37.05-.93-83.36,7.41-113,77.72,3,168.31,4.66,257.11,4.66,75.22,0,149.16-1.18,212.87-3.73v19.45C755.37,552.36,645.16,718.15,569.21,841.33c101.88-13,204.69-46.31,284.34-79.65,7.41,38,7.41,81.5,0,118.55-78.89-3.16-169.71-4.82-259.77-4.82-68.54,0-136.65,1-198.69,3V859.85c88-126,180.13-260.54,256.08-391.13-20.84,4.73-43.75,7.79-67.69,10.23C560.06,582.86,462.85,630.36,360.06,631.51l-3.75,0c-158.17,0-256.07-112.32-257.87-273.66C96.64,196,192.1,86.27,354,84.46l4.11,0m0-12h0l-4.24,0c-82,.92-150.4,28.78-197.85,80.58-46.42,50.67-70.47,121.54-69.54,205,.46,41.29,7,79.89,19.51,114.74s30.63,65.27,54,90.59c48.35,52.47,116.26,80.2,196.39,80.2l3.88,0c56.15-.62,107.22-14.3,147.7-39.55a197.11,197.11,0,0,0,54.93-50.38A190.41,190.41,0,0,0,593.1,490c12.8-1.4,24.06-2.89,34.3-4.52C555.23,607,468.61,733.65,385.26,853a12,12,0,0,0-2.17,6.87v18.52a12,12,0,0,0,12,12h.39c60-1.94,128.57-3,198.3-3,91,0,180.65,1.66,259.29,4.81h.48a12,12,0,0,0,11.76-9.65c7.74-38.68,7.74-83.59,0-123.2a12,12,0,0,0-16.41-8.77,1255.54,1255.54,0,0,1-132.56,47A1011.59,1011.59,0,0,1,593,825.8C666.13,708.51,768.82,554.1,859.66,425a12,12,0,0,0,2.18-6.9V398.62a12,12,0,0,0-12-12h-.48C788.45,389.06,715,390.35,637,390.35c-88,0-179.18-1.65-256.65-4.65h-.47a12,12,0,0,0-11.54,8.75c-8.26,29.35-13.85,77.23-7.73,118a12,12,0,0,0,16,9.5c17.37-6.3,37.36-11.4,60.79-15.49-.13,26.45-7.12,46.93-20.8,60.92-12.45,12.73-30.34,19.59-51.72,19.83h-1.06c-17.55,0-33.23-5-46.62-14.85s-24.9-24.75-34.29-44.34C273.36,508.27,266,483.63,261,454.79c-5-28.6-7.73-61.54-8.14-97.89-.83-74.72,8-132.19,26.13-170.82,18-38.26,44.4-57.05,80.74-57.45H361c20.86,0,38.06,5.69,49.75,16.46,13.12,12.09,19.91,30.74,20.18,55.44.21,18.2-2.83,37.13-9.26,57.88a12,12,0,0,0,5.13,13.75l16.6,10.31a12.06,12.06,0,0,0,6.33,1.8,12.89,12.89,0,0,0,2.05-.17L581.2,261.66a12,12,0,0,0,9.72-14.13c-11.7-59.85-40.36-105.43-85.18-135.48-20.1-13.48-43.4-23.68-69.27-30.31-24.05-6.17-50.43-9.3-78.4-9.3Z" transform="translate(-86.42 -72.44)"/></svg>